PathFileType  4	(X/Y/Z) C:\Users\antoi\Documents\MyRepositories\mobilecap\ResultsAnalysis
DataRate	CameraRate	NumFrames	NumMarkers	Units	OrigDataRate	OrigDataStartFrame	OrigNumFrames
100.0	100.0	4	51	mm	100.0	1	261
Frame#	Time	r_knee			r_shank_antsup			r_ankle			r_calc			r_5meta			r_toe			L_knee			L_shank_antsup			L_ankle			L_calc			L_5meta			L_toe			r_sh2			r_sh3			r_sh4			L_sh2			L_sh3			r_thigh1			r_thigh2			r_thigh3			r_thigh4			r_thigh5			L_thigh1			L_thigh2			L_thigh3			L_thigh4			r.ASIS			r.PSIS			L.ASIS			L.PSIS			C7			R_Shoulder			L_Shoulder			R_Sternum			L_Sternum			R_humerus			R_elbow_med			R_elbow_lat			R_forearm			R_wrist_radius			R_wrist_ulna			L_humerus			L_elbow_med			L_elbow_lat			L_forearm			L_wrist_radius			L_wrist_ulna			R_HJC			L_HJC			R_HJC_reg			L_HJC_reg			
		X1	Y1	Z1	X2	Y2	Z2	X3	Y3	Z3	X4	Y4	Z4	X5	Y5	Z5	X6	Y6	Z6	X7	Y7	Z7	X8	Y8	Z8	X9	Y9	Z9	X10	Y10	Z10	X11	Y11	Z11	X12	Y12	Z12	X13	Y13	Z13	X14	Y14	Z14	X15	Y15	Z15	X16	Y16	Z16	X17	Y17	Z17	X18	Y18	Z18	X19	Y19	Z19	X20	Y20	Z20	X21	Y21	Z21	X22	Y22	Z22	X23	Y23	Z23	X24	Y24	Z24	X25	Y25	Z25	X26	Y26	Z26	X27	Y27	Z27	X28	Y28	Z28	X29	Y29	Z29	X30	Y30	Z30	X31	Y31	Z31	X32	Y32	Z32	X33	Y33	Z33	X34	Y34	Z34	X35	Y35	Z35	X36	Y36	Z36	X37	Y37	Z37	X38	Y38	Z38	X39	Y39	Z39	X40	Y40	Z40	X41	Y41	Z41	X42	Y42	Z42	X43	Y43	Z43	X44	Y44	Z44	X45	Y45	Z45	X46	Y46	Z46	X47	Y47	Z47	X48	Y48	Z48	X49	Y49	Z49	X50	Y50	Z50	X51	Y51	Z51	

1	0.00000000	-1195.21906	855.90673	-425.63391	-1168.07329	759.54791	-437.23513	-1262.51870	430.08459	-468.50538	-1346.83861	382.55708	-514.16431	-1151.35023	356.34619	-424.02381	-1092.59279	384.16382	-486.53767	-1217.10302	854.01528	-732.45505	-1221.25711	763.21551	-751.63048	-1269.14536	430.47684	-682.29919	-1344.41245	382.60390	-622.69409	-1157.47791	359.09803	-720.26166	-1095.46802	385.59139	-659.00762	-1192.84042	651.03583	-414.67652	-1230.33561	780.69477	-397.44447	-1271.13272	673.42521	-392.42292	-1310.50392	774.05992	-740.62862	-1310.28945	651.92426	-730.98605	-1114.24171	1176.06026	-397.23693	-1109.34152	1066.82429	-410.33608	-1162.53436	1037.48802	-382.61094	-1224.66615	1164.92627	-395.62747	-1213.81059	1053.39205	-398.04881	-1120.33675	1139.53075	-753.83891	-1121.65866	999.79164	-738.50720	-1230.12531	1138.57332	-766.12030	-1236.07248	1001.66449	-753.68899	-1100.47863	1395.47156	-445.22483	-1285.40818	1405.04987	-509.31267	-1099.86382	1389.99617	-695.59174	-1286.42280	1405.82807	-622.67311	-1203.16132	1955.52074	-570.23712	-1154.89843	1889.81136	-406.91038	-1184.24921	1887.78206	-738.32484	-1092.33083	1849.63073	-544.16037	-1098.81329	1849.02249	-603.13716	-1158.80326	1730.77665	-342.75655	-1268.46126	1534.55469	-382.76230	-1238.35362	1552.16506	-304.30858	-1171.05204	1390.63051	-289.46948	-1123.20295	1306.22189	-302.00585	-1164.10157	1305.86919	-278.64174	-1217.50137	1761.26885	-814.44332	-1273.80309	1530.69512	-740.75515	-1262.74495	1538.90359	-821.70967	-1218.21957	1477.48029	-843.09942	-1155.30606	1308.95379	-842.60692	-1195.07208	1299.35698	-853.01972	-1179.14814	1277.71602	-462.11600	-1185.77459	1280.64138	-668.94998	-1158.15151	1308.89504	-480.51807	-1159.63076	1310.02960	-645.78973	
2	0.01000000	-1194.95965	855.95982	-425.44080	-1167.95054	759.45205	-437.27350	-1262.68481	429.98187	-468.70445	-1346.26774	382.68299	-514.31862	-1151.37070	356.29912	-423.97378	-1092.60136	384.15494	-486.56786	-1216.83872	853.97691	-732.46096	-1220.96064	763.04753	-751.56055	-1269.21159	430.47749	-682.46833	-1344.43100	382.56842	-622.71972	-1157.50202	359.10473	-720.26255	-1095.58594	385.62359	-658.96100	-1192.77871	650.96896	-414.67902	-1230.12175	780.67833	-397.31022	-1271.10161	673.41383	-392.42933	-1310.26298	774.00188	-740.57383	-1310.46346	651.83498	-730.41148	-1113.89113	1176.24904	-397.31936	-1109.20090	1066.39231	-410.63010	-1162.29030	1037.53644	-382.53829	-1224.71614	1165.34471	-394.61958	-1213.60190	1053.47875	-397.86775	-1120.26668	1139.48809	-753.84639	-1121.52953	999.75715	-738.52164	-1229.97449	1138.50327	-766.16553	-1235.84967	1001.57445	-753.73537	-1100.38866	1395.44748	-445.22584	-1285.29949	1405.00923	-509.45508	-1099.73579	1390.00125	-695.76293	-1286.21936	1405.74823	-622.75734	-1202.87881	1955.31796	-570.26467	-1154.74488	1889.46485	-407.08411	-1183.93610	1887.57227	-738.49472	-1092.12557	1849.50241	-544.03764	-1098.65379	1848.88698	-603.16103	-1158.63713	1730.62220	-342.85512	-1268.42452	1534.29586	-382.44177	-1238.10847	1551.91241	-304.06984	-1170.70286	1390.46307	-289.46244	-1122.79090	1306.21528	-302.14692	-1163.52256	1305.91190	-278.74920	-1217.36439	1761.25235	-813.86653	-1273.61455	1530.63186	-741.26173	-1262.54901	1538.88781	-822.23296	-1217.82611	1477.29474	-843.16828	-1154.85012	1308.91481	-842.85770	-1194.60927	1299.32878	-853.41039	-1179.00608	1277.67960	-462.21871	-1185.59073	1280.61325	-669.05391	-1158.10879	1308.86573	-480.56817	-1159.45144	1309.94447	-645.95327	
3	0.02000000	-1194.81202	855.90174	-425.39832	-1167.81702	759.39344	-437.23357	-1262.77675	429.97358	-468.70558	-1346.31925	382.69636	-514.38146	-1151.38907	356.27511	-423.95954	-1092.58594	384.18021	-486.58190	-1216.51380	853.88561	-732.32441	-1220.57980	762.78766	-751.48144	-1269.27503	430.42670	-682.49824	-1344.46568	382.54613	-622.70565	-1157.52823	359.11529	-720.26190	-1095.66964	385.67087	-658.92537	-1192.64773	650.88279	-414.68486	-1230.01366	780.61916	-397.22755	-1271.07708	673.40418	-392.45306	-1309.94802	773.94318	-740.55113	-1310.17870	651.88640	-730.43684	-1114.61854	1176.10386	-397.69715	-1109.07275	1066.23899	-410.71929	-1162.16688	1037.49656	-382.56240	-1224.85307	1165.86459	-393.30016	-1213.46147	1053.49057	-397.84657	-1120.13736	1139.40604	-753.81448	-1121.32073	999.69128	-738.48501	-1229.82983	1138.37666	-766.09559	-1235.61163	1001.39358	-753.67366	-1100.36825	1395.44024	-445.21461	-1285.22777	1404.94875	-509.55545	-1099.66124	1389.99904	-696.07698	-1286.11212	1405.71147	-622.89391	-1202.47232	1955.14553	-570.27467	-1154.57482	1889.12919	-407.15361	-1183.58179	1887.30906	-738.43608	-1091.92354	1849.30905	-544.06340	-1098.45959	1848.64637	-603.14450	-1158.34671	1730.37253	-342.92273	-1268.52450	1534.12058	-381.94282	-1237.83765	1551.77580	-303.72492	-1170.27479	1390.29442	-289.53188	-1122.32723	1306.14709	-302.32220	-1163.01878	1305.95500	-278.71805	-1217.22531	1761.18313	-813.20942	-1273.74173	1530.42794	-741.83896	-1262.41984	1538.96854	-822.75800	-1217.48901	1477.27682	-843.75828	-1154.35976	1308.93125	-843.18948	-1194.06905	1299.37482	-854.02903	-1178.91506	1277.64764	-462.36267	-1185.49186	1280.59616	-669.19789	-1158.05359	1308.72290	-480.64905	-1159.34581	1309.83735	-646.24900	
4	0.03000000	-1194.68858	855.83813	-425.41335	-1167.65915	759.32446	-437.18078	-1262.77991	430.13621	-468.45866	-1346.74654	382.70172	-514.58460	-1151.40319	356.28053	-423.97110	-1092.56988	384.20706	-486.56140	-1216.13538	853.77584	-732.12435	-1220.09831	762.50002	-751.39940	-1269.31364	430.37839	-682.51959	-1344.55408	382.46432	-622.63485	-1157.55332	359.13369	-720.26090	-1095.69265	385.73332	-658.94583	-1192.41845	650.85821	-414.64067	-1229.67818	780.86601	-397.15754	-1271.03430	673.38462	-392.46927	-1309.47789	773.92165	-740.52375	-1309.57409	652.06578	-730.86250	-1115.94801	1175.69479	-398.11027	-1108.93224	1066.33277	-410.66950	-1162.06595	1037.44812	-382.64878	-1224.94422	1166.04601	-392.45887	-1213.30893	1053.37427	-397.93950	-1119.87940	1139.23543	-753.79970	-1120.99330	999.59445	-738.29816	-1229.63099	1138.20143	-765.98145	-1235.32254	1001.16904	-753.66520	-1100.41394	1395.46158	-445.20173	-1285.21055	1404.85088	-509.62779	-1099.63261	1389.97995	-696.49690	-1286.10870	1405.63380	-622.98924	-1201.97205	1954.98877	-570.29951	-1154.31909	1888.86329	-407.10748	-1183.16399	1887.04445	-738.31593	-1091.68288	1849.05328	-544.22983	-1098.15729	1848.19158	-603.11537	-1157.92927	1730.13001	-342.91302	-1268.37902	1534.25417	-381.48419	-1237.55195	1551.79616	-303.29698	-1169.80753	1390.18386	-289.60335	-1121.81430	1306.10243	-302.54564	-1162.54838	1305.87126	-278.81929	-1217.02236	1761.13717	-812.68955	-1274.64209	1530.04995	-742.90840	-1262.39720	1539.20985	-823.59693	-1217.23264	1477.49189	-844.87817	-1153.83840	1309.11721	-843.79725	-1193.40934	1299.56328	-855.13892	-1178.83655	1277.61734	-462.50171	-1185.45317	1280.55034	-669.33589	-1157.99360	1308.53633	-480.71887	-1159.30798	1309.68189	-646.60475	
